<svg xmlns="http://www.w3.org/2000/svg" height="13" version="1.1" viewBox="0 -10 620 620" width="13">
<g id="surface1">
<path d="M 200 80 L 420 80 L 420 100 L 200 100 Z M 200 80 " style=" stroke:none;fill-rule:nonzero;fill:#91979c;fill-opacity:1;" />
<path d="M 230 50 L 390 50 L 390 70 L 230 70 Z M 230 50 " style=" stroke:none;fill-rule:nonzero;fill:#91979c;fill-opacity:1;" />
<path d="M 200 500 L 420 500 L 420 520 L 200 520 Z M 200 500 " style=" stroke:none;fill-rule:nonzero;fill:#91979c;fill-opacity:1;" />
<path d="M 230 530 L 390 530 L 390 550 L 230 550 Z M 230 530 " style=" stroke:none;fill-rule:nonzero;fill:#91979c;fill-opacity:1;" />
<path d="M 619.828125 169.160156 C 619.765625 168.480469 619.632812 167.8125 619.429688 167.15625 C 619.265625 166.558594 619.042969 165.976562 618.757812 165.421875 C 618.476562 164.878906 618.140625 164.359375 617.757812 163.882812 C 617.339844 163.34375 616.867188 162.847656 616.347656 162.402344 C 616.117188 162.222656 616 161.957031 615.761719 161.792969 L 520 94.789062 L 520 10 C 520 4.476562 515.523438 0 510 0 L 110 0 C 104.476562 0 100 4.476562 100 10 L 100 94.789062 L 4.265625 161.792969 C 4.027344 161.957031 3.910156 162.222656 3.679688 162.402344 C 3.164062 162.847656 2.695312 163.34375 2.269531 163.882812 C 1.890625 164.359375 1.554688 164.878906 1.269531 165.421875 C 0.992188 165.976562 0.765625 166.558594 0.601562 167.15625 C 0.394531 167.8125 0.265625 168.480469 0.199219 169.160156 C 0.117188 169.4375 0.046875 169.71875 0 170 L 0 430 C 0 435.523438 4.476562 440 10 440 L 100 440 L 100 590 C 100 595.523438 104.476562 600 110 600 L 510 600 C 515.523438 600 520 595.523438 520 590 L 520 440 L 610 440 C 615.523438 440 620 435.523438 620 430 L 620 170 C 619.960938 169.71875 619.902344 169.4375 619.828125 169.160156 Z M 578.28125 160 L 520 160 L 520 119.210938 Z M 500 20 L 500 160 L 470 160 L 470 120 C 470 114.476562 465.523438 110 460 110 L 160 110 C 154.476562 110 150 114.476562 150 120 L 150 160 L 120 160 L 120 20 Z M 170 160 L 170 130 L 450 130 L 450 160 Z M 100 160 L 41.71875 160 L 100 119.210938 Z M 500 580 L 120 580 L 120 440 L 150 440 L 150 480 C 150 485.523438 154.476562 490 160 490 L 460 490 C 465.523438 490 470 485.523438 470 480 L 470 440 L 500 440 Z M 450 440 L 450 470 L 170 470 L 170 440 Z M 600 420 L 20 420 L 20 180 L 600 180 Z M 600 420 " style=" stroke:none;fill-rule:nonzero;fill:#91979c;fill-opacity:1;" />
<path d="M 190 210 L 160 210 C 154.476562 210 150 214.476562 150 220 L 150 380 C 150 385.523438 154.476562 390 160 390 L 200 390 C 227.601562 389.964844 249.964844 367.601562 250 340 L 250 260 C 250 231.839844 217.738281 210 190 210 Z M 230 340 C 230 356.566406 216.566406 370 200 370 L 170 370 L 170 230 L 190 230 C 207.46875 230 230 244.550781 230 260 Z M 230 340 " style=" stroke:none;fill-rule:nonzero;fill:#91979c;fill-opacity:1;" />
<path d="M 352.300781 210.269531 C 347.78125 209.199219 343.125 211.375 341.050781 215.53125 L 310 277.640625 L 279 215.53125 C 276.957031 211.3125 272.265625 209.082031 267.710938 210.152344 C 263.148438 211.226562 259.945312 215.316406 260 220 L 260 380 C 260 385.523438 264.476562 390 270 390 C 275.523438 390 280 385.523438 280 380 L 280 262.359375 L 301.050781 304.46875 C 302.929688 307.621094 306.328125 309.554688 310 309.554688 C 313.671875 309.554688 317.070312 307.621094 318.949219 304.46875 L 340 262.359375 L 340 380 C 340 385.523438 344.476562 390 350 390 C 355.523438 390 360 385.523438 360 380 L 360 220 C 360 215.367188 356.8125 211.335938 352.300781 210.269531 Z M 352.300781 210.269531 " style=" stroke:none;fill-rule:nonzero;fill:#91979c;fill-opacity:1;" />
<path d="M 400 230 L 460 230 C 465.523438 230 470 225.523438 470 220 C 470 214.476562 465.523438 210 460 210 L 400 210 C 383.433594 210 370 223.433594 370 240 L 370 280 C 370 296.566406 383.433594 310 400 310 L 440 310 C 445.523438 310 450 314.476562 450 320 L 450 360 C 450 365.523438 445.523438 370 440 370 L 380 370 C 374.476562 370 370 374.476562 370 380 C 370 385.523438 374.476562 390 380 390 L 440 390 C 456.566406 390 470 376.566406 470 360 L 470 320 C 470 303.433594 456.566406 290 440 290 L 400 290 C 394.476562 290 390 285.523438 390 280 L 390 240 C 390 234.476562 394.476562 230 400 230 Z M 400 230 " style=" stroke:none;fill-rule:nonzero;fill:#91979c;fill-opacity:1;" />
</g>
</svg>